<?xml version="1.0" encoding="utf-8" standalone="no"?>
<!DOCTYPE svg PUBLIC "-//W3C//DTD SVG 1.1//EN"
  "http://www.w3.org/Graphics/SVG/1.1/DTD/svg11.dtd">
<!-- Created with matplotlib (https://matplotlib.org/) -->
<svg height="288pt" version="1.1" viewBox="0 0 432 288" width="432pt" xmlns="http://www.w3.org/2000/svg" xmlns:xlink="http://www.w3.org/1999/xlink">
 <defs>
  <style type="text/css">
*{stroke-linecap:butt;stroke-linejoin:round;}
  </style>
 </defs>
 <g id="figure_1">
  <g id="patch_1">
   <path d="M 0 288 
L 432 288 
L 432 0 
L 0 0 
z
" style="fill:none;"/>
  </g>
  <g id="axes_1">
   <g id="patch_2">
    <path d="M 54 252 
L 388.8 252 
L 388.8 34.56 
L 54 34.56 
z
" style="fill:none;"/>
   </g>
   <g id="matplotlib.axis_1">
    <g id="xtick_1">
     <g id="line2d_1">
      <path clip-path="url(#p1097da0a1b)" d="M 69.218182 252 
L 69.218182 34.56 
" style="fill:none;stroke:#b0b0b0;stroke-linecap:square;stroke-width:0.8;"/>
     </g>
     <g id="line2d_2">
      <defs>
       <path d="M 0 0 
L 0 3.5 
" id="me7dd956bbc" style="stroke:#000000;stroke-width:0.8;"/>
      </defs>
      <g>
       <use style="stroke:#000000;stroke-width:0.8;" x="69.218182" xlink:href="#me7dd956bbc" y="252"/>
      </g>
     </g>
     <g id="text_1">
      <!-- $1$ -->
      <defs>
       <path d="M 26.59375 63.796875 
C 26.59375 65.890625 26.5 66 25.09375 66 
C 21.203125 61.359375 15.296875 59.890625 9.703125 59.6875 
C 9.40625 59.6875 8.90625 59.6875 8.796875 59.5 
C 8.703125 59.296875 8.703125 59.09375 8.703125 57 
C 11.796875 57 17 57.59375 21 59.984375 
L 21 7.296875 
C 21 3.796875 20.796875 2.59375 12.203125 2.59375 
L 9.203125 2.59375 
L 9.203125 0 
C 14 0.09375 19 0.1875 23.796875 0.1875 
C 28.59375 0.1875 33.59375 0.09375 38.40625 0 
L 38.40625 2.59375 
L 35.40625 2.59375 
C 26.796875 2.59375 26.59375 3.6875 26.59375 7.296875 
z
" id="CMR17-49"/>
      </defs>
      <g transform="translate(66.727514 266.392201)scale(0.1 -0.1)">
       <use transform="scale(0.996264)" xlink:href="#CMR17-49"/>
      </g>
     </g>
    </g>
    <g id="xtick_2">
     <g id="line2d_3">
      <path clip-path="url(#p1097da0a1b)" d="M 130.090909 252 
L 130.090909 34.56 
" style="fill:none;stroke:#b0b0b0;stroke-linecap:square;stroke-width:0.8;"/>
     </g>
     <g id="line2d_4">
      <g>
       <use style="stroke:#000000;stroke-width:0.8;" x="130.090909" xlink:href="#me7dd956bbc" y="252"/>
      </g>
     </g>
     <g id="text_2">
      <!-- $2$ -->
      <defs>
       <path d="M 41.703125 15.46875 
L 39.90625 15.46875 
C 38.90625 8.390625 38.09375 7.1875 37.703125 6.59375 
C 37.203125 5.796875 30 5.796875 28.59375 5.796875 
L 9.40625 5.796875 
C 13 9.6875 20 16.765625 28.5 24.9375 
C 34.59375 30.71875 41.703125 37.5 41.703125 47.390625 
C 41.703125 59.1875 32.296875 66 21.796875 66 
C 10.796875 66 4.09375 56.296875 4.09375 47.296875 
C 4.09375 43.390625 7 42.890625 8.203125 42.890625 
C 9.203125 42.890625 12.203125 43.484375 12.203125 46.984375 
C 12.203125 50.09375 9.59375 51 8.203125 51 
C 7.59375 51 7 50.890625 6.59375 50.6875 
C 8.5 59.1875 14.296875 63.390625 20.40625 63.390625 
C 29.09375 63.390625 34.796875 56.5 34.796875 47.390625 
C 34.796875 38.703125 29.703125 31.21875 24 24.734375 
L 4.09375 2.296875 
L 4.09375 0 
L 39.296875 0 
z
" id="CMR17-50"/>
      </defs>
      <g transform="translate(127.600241 266.392201)scale(0.1 -0.1)">
       <use transform="scale(0.996264)" xlink:href="#CMR17-50"/>
      </g>
     </g>
    </g>
    <g id="xtick_3">
     <g id="line2d_5">
      <path clip-path="url(#p1097da0a1b)" d="M 190.963636 252 
L 190.963636 34.56 
" style="fill:none;stroke:#b0b0b0;stroke-linecap:square;stroke-width:0.8;"/>
     </g>
     <g id="line2d_6">
      <g>
       <use style="stroke:#000000;stroke-width:0.8;" x="190.963636" xlink:href="#me7dd956bbc" y="252"/>
      </g>
     </g>
     <g id="text_3">
      <!-- $3$ -->
      <defs>
       <path d="M 22.09375 34 
C 31 34 34.90625 26.140625 34.90625 17.09375 
C 34.90625 5.03125 28.5 0.390625 22.703125 0.390625 
C 17.40625 0.390625 8.796875 3.015625 6.09375 10.796875 
C 6.59375 10.59375 7.09375 10.59375 7.59375 10.59375 
C 10 10.59375 11.796875 12.1875 11.796875 14.796875 
C 11.796875 17.6875 9.59375 19 7.59375 19 
C 5.90625 19 3.296875 18.1875 3.296875 14.484375 
C 3.296875 5.234375 12.296875 -2 22.90625 -2 
C 34 -2 42.5 6.75 42.5 16.984375 
C 42.5 26.84375 34.5 34 25 35.09375 
C 32.59375 36.671875 39.90625 43.375 39.90625 52.390625 
C 39.90625 60.25 32 66 23 66 
C 13.90625 66 5.90625 60.34375 5.90625 52.296875 
C 5.90625 48.796875 8.5 48.1875 9.796875 48.1875 
C 11.90625 48.1875 13.703125 49.484375 13.703125 52.09375 
C 13.703125 54.6875 11.90625 56 9.796875 56 
C 9.40625 56 8.90625 56 8.5 55.796875 
C 11.40625 62.484375 19.296875 63.6875 22.796875 63.6875 
C 26.296875 63.6875 32.90625 61.96875 32.90625 52.296875 
C 32.90625 49.484375 32.5 44.546875 29.09375 40.21875 
C 26.09375 36.390625 22.703125 36.1875 19.40625 35.890625 
C 18.90625 35.890625 16.59375 35.6875 16.203125 35.6875 
C 15.5 35.59375 15.09375 35.5 15.09375 34.796875 
C 15.09375 34.09375 15.203125 34 17.203125 34 
z
" id="CMR17-51"/>
      </defs>
      <g transform="translate(188.472969 266.392201)scale(0.1 -0.1)">
       <use transform="scale(0.996264)" xlink:href="#CMR17-51"/>
      </g>
     </g>
    </g>
    <g id="xtick_4">
     <g id="line2d_7">
      <path clip-path="url(#p1097da0a1b)" d="M 251.836364 252 
L 251.836364 34.56 
" style="fill:none;stroke:#b0b0b0;stroke-linecap:square;stroke-width:0.8;"/>
     </g>
     <g id="line2d_8">
      <g>
       <use style="stroke:#000000;stroke-width:0.8;" x="251.836364" xlink:href="#me7dd956bbc" y="252"/>
      </g>
     </g>
     <g id="text_4">
      <!-- $4$ -->
      <defs>
       <path d="M 33.59375 64.796875 
C 33.59375 66.890625 33.5 67 31.703125 67 
L 2 19.59375 
L 2 17 
L 27.796875 17 
L 27.796875 7.1875 
C 27.796875 3.59375 27.59375 2.59375 20.59375 2.59375 
L 18.703125 2.59375 
L 18.703125 0 
C 21.90625 0.1875 27.296875 0.1875 30.703125 0.1875 
C 34.09375 0.1875 39.5 0.1875 42.703125 0 
L 42.703125 2.59375 
L 40.796875 2.59375 
C 33.796875 2.59375 33.59375 3.59375 33.59375 7.1875 
L 33.59375 17 
L 43.796875 17 
L 43.796875 19.59375 
L 33.59375 19.59375 
z
M 28.09375 58.171875 
L 28.09375 19.59375 
L 4 19.59375 
z
" id="CMR17-52"/>
      </defs>
      <g transform="translate(249.345696 266.392201)scale(0.1 -0.1)">
       <use transform="scale(0.996264)" xlink:href="#CMR17-52"/>
      </g>
     </g>
    </g>
    <g id="xtick_5">
     <g id="line2d_9">
      <path clip-path="url(#p1097da0a1b)" d="M 312.709091 252 
L 312.709091 34.56 
" style="fill:none;stroke:#b0b0b0;stroke-linecap:square;stroke-width:0.8;"/>
     </g>
     <g id="line2d_10">
      <g>
       <use style="stroke:#000000;stroke-width:0.8;" x="312.709091" xlink:href="#me7dd956bbc" y="252"/>
      </g>
     </g>
     <g id="text_5">
      <!-- $5$ -->
      <defs>
       <path d="M 11.40625 58.59375 
C 12.40625 58.1875 16.5 56.890625 20.703125 56.890625 
C 30 56.890625 35.09375 61.890625 38 64.6875 
C 38 65.484375 38 66 37.40625 66 
C 37.296875 66 37.09375 66 36.296875 65.59375 
C 32.796875 64.09375 28.703125 63 23.703125 63 
C 20.703125 63 16.203125 63.359375 11.296875 65.484375 
C 10.203125 66 10 66 9.90625 66 
C 9.40625 66 9.296875 65.890625 9.296875 63.90625 
L 9.296875 34.859375 
C 9.296875 33.015625 9.296875 32.5 10.296875 32.5 
C 10.796875 32.5 11 32.703125 11.5 33.421875 
C 14.703125 38.046875 19.09375 40 24.09375 40 
C 27.59375 40 35.09375 37.734375 35.09375 20.203125 
C 35.09375 16.984375 35.09375 11.1875 32.09375 6.59375 
C 29.59375 2.484375 25.703125 0.390625 21.40625 0.390625 
C 14.796875 0.390625 8.09375 4.984375 6.296875 12.6875 
C 6.703125 12.59375 7.5 12.390625 7.90625 12.390625 
C 9.203125 12.390625 11.703125 13.09375 11.703125 16.1875 
C 11.703125 18.890625 9.796875 20 7.90625 20 
C 5.59375 20 4.09375 18.59375 4.09375 15.796875 
C 4.09375 7.09375 11 -2 21.59375 -2 
C 31.90625 -2 41.703125 6.890625 41.703125 19.796875 
C 41.703125 32.09375 33.90625 41.59375 24.203125 41.59375 
C 19.09375 41.59375 14.796875 39.6875 11.40625 36 
z
" id="CMR17-53"/>
      </defs>
      <g transform="translate(310.218423 266.392201)scale(0.1 -0.1)">
       <use transform="scale(0.996264)" xlink:href="#CMR17-53"/>
      </g>
     </g>
    </g>
    <g id="xtick_6">
     <g id="line2d_11">
      <path clip-path="url(#p1097da0a1b)" d="M 373.581818 252 
L 373.581818 34.56 
" style="fill:none;stroke:#b0b0b0;stroke-linecap:square;stroke-width:0.8;"/>
     </g>
     <g id="line2d_12">
      <g>
       <use style="stroke:#000000;stroke-width:0.8;" x="373.581818" xlink:href="#me7dd956bbc" y="252"/>
      </g>
     </g>
     <g id="text_6">
      <!-- $6$ -->
      <defs>
       <path d="M 10.59375 34.34375 
C 10.59375 58 21.796875 63.6875 28.296875 63.6875 
C 30.40625 63.6875 35.5 63.265625 37.5 59.09375 
C 35.90625 59.09375 32.90625 59.09375 32.90625 55.59375 
C 32.90625 52.890625 35.09375 52 36.5 52 
C 37.40625 52 40.09375 52.390625 40.09375 55.796875 
C 40.09375 62.296875 35.09375 66 28.203125 66 
C 16.296875 66 3.796875 53.296875 3.796875 31.421875 
C 3.796875 4.015625 15.09375 -2 23.09375 -2 
C 32.796875 -2 42 6.734375 42 20.234375 
C 42 32.828125 33.90625 42 23.703125 42 
C 17.59375 42 13.09375 37.96875 10.59375 30.921875 
z
M 23.09375 0.390625 
C 10.796875 0.390625 10.796875 18.9375 10.796875 22.65625 
C 10.796875 29.90625 14.203125 40.390625 23.5 40.390625 
C 25.203125 40.390625 30.09375 40.390625 33.40625 33.4375 
C 35.203125 29.515625 35.203125 25.375 35.203125 20.34375 
C 35.203125 14.90625 35.203125 10.875 33.09375 6.84375 
C 30.90625 2.703125 27.703125 0.390625 23.09375 0.390625 
z
" id="CMR17-54"/>
      </defs>
      <g transform="translate(371.091151 266.392201)scale(0.1 -0.1)">
       <use transform="scale(0.996264)" xlink:href="#CMR17-54"/>
      </g>
     </g>
    </g>
    <g id="text_7">
     <!-- $x$ -->
     <defs>
      <path d="M 47.40625 41 
C 44.203125 40.390625 43 37.984375 43 36.09375 
C 43 33.6875 44.90625 32.890625 46.296875 32.890625 
C 49.296875 32.890625 51.40625 35.484375 51.40625 38.1875 
C 51.40625 42.09375 46.59375 44 42.40625 44 
C 36.296875 44 32.90625 38.296875 32 36.390625 
C 29.703125 43.59375 23.5 44 21.703125 44 
C 11.5 44 6.09375 31.140625 6.09375 28.890625 
C 6.09375 28.484375 6.5 27.96875 7.203125 27.96875 
C 8 27.96875 8.203125 28.578125 8.40625 28.984375 
C 11.796875 40.1875 18.5 41.984375 21.40625 41.984375 
C 25.90625 41.984375 26.796875 38.09375 26.796875 35.6875 
C 26.796875 33.484375 26.203125 31.140625 25 26.21875 
L 21.59375 12.15625 
C 20.09375 6.09375 17.203125 1 11.90625 1 
C 11.40625 1 8.90625 1 6.796875 1.96875 
C 10.40625 2.59375 11.203125 5.59375 11.203125 6.796875 
C 11.203125 8.796875 9.703125 10 7.796875 10 
C 5.40625 10 2.796875 7.890625 2.796875 4.6875 
C 2.796875 0.890625 7.5 -1 11.796875 -1 
C 16.59375 -1 20 2.390625 22.09375 6.484375 
C 23.703125 1 28.703125 -1 32.40625 -1 
C 42.59375 -1 48 11.734375 48 14 
C 48 14.515625 47.59375 14.921875 47 14.921875 
C 46.09375 14.921875 46 14.40625 45.703125 13.59375 
C 43 4.6875 37.203125 1 32.703125 1 
C 29.203125 1 27.296875 3.1875 27.296875 7.296875 
C 27.296875 9.484375 27.703125 11.125 29.296875 17.90625 
L 32.796875 31.859375 
C 34.296875 37.890625 37.703125 41.984375 42.296875 41.984375 
C 42.5 41.984375 45.296875 41.984375 47.40625 41 
z
" id="CMMI12-120"/>
     </defs>
     <g transform="translate(218.553041 279.677267)scale(0.1 -0.1)">
      <use transform="scale(0.996264)" xlink:href="#CMMI12-120"/>
     </g>
    </g>
   </g>
   <g id="matplotlib.axis_2">
    <g id="ytick_1">
     <g id="line2d_13">
      <path clip-path="url(#p1097da0a1b)" d="M 54 237.723636 
L 388.8 237.723636 
" style="fill:none;stroke:#b0b0b0;stroke-linecap:square;stroke-width:0.8;"/>
     </g>
     <g id="line2d_14">
      <defs>
       <path d="M 0 0 
L -3.5 0 
" id="m6c97420685" style="stroke:#000000;stroke-width:0.8;"/>
      </defs>
      <g>
       <use style="stroke:#000000;stroke-width:0.8;" x="54" xlink:href="#m6c97420685" y="237.723636"/>
      </g>
     </g>
     <g id="text_8">
      <!-- $0$ -->
      <defs>
       <path d="M 42 31.84375 
C 42 37.96875 41.90625 48.421875 37.703125 56.453125 
C 34 63.484375 28.09375 66 22.90625 66 
C 18.09375 66 12 63.78125 8.203125 56.5625 
C 4.203125 49.015625 3.796875 39.671875 3.796875 31.84375 
C 3.796875 26.109375 3.90625 17.375 7 9.734375 
C 11.296875 -0.609375 19 -2 22.90625 -2 
C 27.5 -2 34.5 -0.109375 38.59375 9.4375 
C 41.59375 16.375 42 24.5 42 31.84375 
z
M 22.90625 -0.40625 
C 16.5 -0.40625 12.703125 5.125 11.296875 12.75 
C 10.203125 18.6875 10.203125 27.328125 10.203125 32.953125 
C 10.203125 40.6875 10.203125 47.109375 11.5 53.234375 
C 13.40625 61.78125 19 64.390625 22.90625 64.390625 
C 27 64.390625 32.296875 61.671875 34.203125 53.4375 
C 35.5 47.71875 35.59375 40.984375 35.59375 32.953125 
C 35.59375 26.421875 35.59375 18.375 34.40625 12.453125 
C 32.296875 1.5 26.40625 -0.40625 22.90625 -0.40625 
z
" id="CMR17-48"/>
      </defs>
      <g transform="translate(42.018665 241.419737)scale(0.1 -0.1)">
       <use transform="scale(0.996264)" xlink:href="#CMR17-48"/>
      </g>
     </g>
    </g>
    <g id="ytick_2">
     <g id="line2d_15">
      <path clip-path="url(#p1097da0a1b)" d="M 54 193.796364 
L 388.8 193.796364 
" style="fill:none;stroke:#b0b0b0;stroke-linecap:square;stroke-width:0.8;"/>
     </g>
     <g id="line2d_16">
      <g>
       <use style="stroke:#000000;stroke-width:0.8;" x="54" xlink:href="#m6c97420685" y="193.796364"/>
      </g>
     </g>
     <g id="text_9">
      <!-- $10$ -->
      <g transform="translate(37.037329 197.492464)scale(0.1 -0.1)">
       <use transform="scale(0.996264)" xlink:href="#CMR17-49"/>
       <use transform="translate(45.690477 0)scale(0.996264)" xlink:href="#CMR17-48"/>
      </g>
     </g>
    </g>
    <g id="ytick_3">
     <g id="line2d_17">
      <path clip-path="url(#p1097da0a1b)" d="M 54 149.869091 
L 388.8 149.869091 
" style="fill:none;stroke:#b0b0b0;stroke-linecap:square;stroke-width:0.8;"/>
     </g>
     <g id="line2d_18">
      <g>
       <use style="stroke:#000000;stroke-width:0.8;" x="54" xlink:href="#m6c97420685" y="149.869091"/>
      </g>
     </g>
     <g id="text_10">
      <!-- $20$ -->
      <g transform="translate(37.037329 153.565191)scale(0.1 -0.1)">
       <use transform="scale(0.996264)" xlink:href="#CMR17-50"/>
       <use transform="translate(45.690477 0)scale(0.996264)" xlink:href="#CMR17-48"/>
      </g>
     </g>
    </g>
    <g id="ytick_4">
     <g id="line2d_19">
      <path clip-path="url(#p1097da0a1b)" d="M 54 105.941818 
L 388.8 105.941818 
" style="fill:none;stroke:#b0b0b0;stroke-linecap:square;stroke-width:0.8;"/>
     </g>
     <g id="line2d_20">
      <g>
       <use style="stroke:#000000;stroke-width:0.8;" x="54" xlink:href="#m6c97420685" y="105.941818"/>
      </g>
     </g>
     <g id="text_11">
      <!-- $30$ -->
      <g transform="translate(37.037329 109.637919)scale(0.1 -0.1)">
       <use transform="scale(0.996264)" xlink:href="#CMR17-51"/>
       <use transform="translate(45.690477 0)scale(0.996264)" xlink:href="#CMR17-48"/>
      </g>
     </g>
    </g>
    <g id="ytick_5">
     <g id="line2d_21">
      <path clip-path="url(#p1097da0a1b)" d="M 54 62.014545 
L 388.8 62.014545 
" style="fill:none;stroke:#b0b0b0;stroke-linecap:square;stroke-width:0.8;"/>
     </g>
     <g id="line2d_22">
      <g>
       <use style="stroke:#000000;stroke-width:0.8;" x="54" xlink:href="#m6c97420685" y="62.014545"/>
      </g>
     </g>
     <g id="text_12">
      <!-- $40$ -->
      <g transform="translate(37.037329 65.710646)scale(0.1 -0.1)">
       <use transform="scale(0.996264)" xlink:href="#CMR17-52"/>
       <use transform="translate(45.690477 0)scale(0.996264)" xlink:href="#CMR17-48"/>
      </g>
     </g>
    </g>
    <g id="text_13">
     <!-- $f(x)$ -->
     <defs>
      <path d="M 44.59375 40.09375 
C 46.59375 40.09375 47.40625 40.09375 47.40625 41.984375 
C 47.40625 43 46.59375 43 44.796875 43 
L 36.703125 43 
C 38.59375 53.09375 40 60.09375 40.796875 63.296875 
C 41.40625 65.6875 43.5 67.984375 46.09375 67.984375 
C 48.203125 67.984375 50.296875 67.09375 51.296875 66.1875 
C 47.40625 65.796875 46.203125 62.890625 46.203125 61.1875 
C 46.203125 59.1875 47.703125 58 49.59375 58 
C 51.59375 58 54.59375 59.6875 54.59375 63.5 
C 54.59375 67.6875 50.40625 70 46 70 
C 41.703125 70 37.5 66.796875 35.5 62.890625 
C 33.703125 59.390625 32.703125 55.828125 30.40625 43 
L 23.703125 43 
C 21.796875 43 20.796875 43 20.796875 41.1875 
C 20.796875 40.09375 21.40625 40.09375 23.40625 40.09375 
L 29.796875 40.09375 
C 28 30.890625 23.90625 8.515625 21.59375 -2.0625 
C 19.90625 -10.703125 18.40625 -18 13.40625 -18 
C 13.09375 -18 10.203125 -18 8.40625 -16.109375 
C 13.5 -15.703125 13.5 -11.3125 13.5 -11.203125 
C 13.5 -9.203125 12 -8 10.09375 -8 
C 8.09375 -8 5.09375 -9.703125 5.09375 -13.515625 
C 5.09375 -17.8125 9.5 -20 13.40625 -20 
C 23.59375 -20 27.796875 -1.765625 28.90625 3.171875 
C 30.703125 10.796875 35.59375 37.125 36.09375 40.09375 
z
" id="CMMI12-102"/>
      <path d="M 30.59375 -24.40625 
C 30.59375 -24.3125 30.59375 -24.109375 30.296875 -23.8125 
C 25.703125 -19.109375 13.40625 -6.296875 13.40625 24.9375 
C 13.40625 56.171875 25.5 68.875 30.40625 73.890625 
C 30.40625 73.984375 30.59375 74.1875 30.59375 74.484375 
C 30.59375 74.796875 30.296875 75 29.90625 75 
C 28.796875 75 20.296875 67.578125 15.40625 56.5625 
C 10.40625 45.453125 9 34.65625 9 25.046875 
C 9 17.828125 9.703125 5.625 15.703125 -7.296875 
C 20.5 -17.703125 28.703125 -25 29.90625 -25 
C 30.40625 -25 30.59375 -24.8125 30.59375 -24.40625 
z
" id="CMR17-40"/>
      <path d="M 26.296875 24.9375 
C 26.296875 32.140625 25.59375 44.359375 19.59375 57.265625 
C 14.796875 67.6875 6.59375 75 5.40625 75 
C 5.09375 75 4.703125 74.890625 4.703125 74.390625 
C 4.703125 74.1875 4.796875 74.09375 4.90625 73.890625 
C 9.703125 68.875 21.90625 56.171875 21.90625 25.046875 
C 21.90625 -6.1875 9.796875 -18.90625 4.90625 -23.90625 
C 4.796875 -24.109375 4.703125 -24.203125 4.703125 -24.40625 
C 4.703125 -24.90625 5.09375 -25 5.40625 -25 
C 6.5 -25 15 -17.609375 19.90625 -6.59375 
C 24.90625 4.515625 26.296875 15.328125 26.296875 24.9375 
z
" id="CMR17-41"/>
     </defs>
     <g transform="translate(30.546669 152.976305)rotate(-90)scale(0.1 -0.1)">
      <use transform="scale(0.996264)" xlink:href="#CMMI12-102"/>
      <use transform="translate(58.720305 0)scale(0.996264)" xlink:href="#CMR17-40"/>
      <use transform="translate(94.001073 0)scale(0.996264)" xlink:href="#CMMI12-120"/>
      <use transform="translate(149.435132 0)scale(0.996264)" xlink:href="#CMR17-41"/>
     </g>
    </g>
   </g>
   <g id="line2d_23">
    <path clip-path="url(#p1097da0a1b)" d="M 69.218182 242.116364 
L 78.394975 239.367651 
L 87.571768 236.419273 
L 98.278026 232.727146 
L 108.984285 228.763254 
L 119.690544 224.527596 
L 130.396802 220.020172 
L 141.103061 215.240984 
L 151.809319 210.190029 
L 162.515578 204.86731 
L 173.221836 199.272825 
L 183.928095 193.406574 
L 194.634354 187.268559 
L 205.340612 180.858777 
L 216.046871 174.177231 
L 226.753129 167.223919 
L 237.459388 159.998841 
L 248.165646 152.501999 
L 258.871905 144.73339 
L 269.578164 136.693017 
L 280.284422 128.380878 
L 290.990681 119.796973 
L 301.696939 110.941303 
L 312.403198 101.813868 
L 323.109456 92.414667 
L 333.815715 82.743701 
L 344.521974 72.80097 
L 355.228232 62.586473 
L 365.934491 52.100211 
L 373.581818 44.443636 
L 373.581818 44.443636 
" style="fill:none;stroke:#1f77b4;stroke-linecap:square;stroke-width:1.5;"/>
   </g>
   <g id="line2d_24">
    <path clip-path="url(#p1097da0a1b)" d="M 373.581818 44.443636 
L 373.581818 237.723636 
" style="fill:none;stroke:#ff0000;stroke-linecap:square;stroke-width:1.5;"/>
   </g>
   <g id="line2d_25">
    <defs>
     <path d="M 0 -3 
L -0.673542 -0.927051 
L -2.85317 -0.927051 
L -1.089814 0.354102 
L -1.763356 2.427051 
L -0 1.145898 
L 1.763356 2.427051 
L 1.089814 0.354102 
L 2.85317 -0.927051 
L 0.673542 -0.927051 
z
" id="m941e0940a3" style="stroke:#ff0000;stroke-linejoin:bevel;"/>
    </defs>
    <g clip-path="url(#p1097da0a1b)">
     <use style="fill:#ff0000;stroke:#ff0000;stroke-linejoin:bevel;" x="373.581818" xlink:href="#m941e0940a3" y="44.443636"/>
    </g>
   </g>
   <g id="line2d_26">
    <path clip-path="url(#p1097da0a1b)" d="M 373.581818 44.443636 
L 373.581818 237.723636 
" style="fill:none;stroke:#ff0000;stroke-linecap:square;stroke-width:1.5;"/>
   </g>
   <g id="line2d_27">
    <g clip-path="url(#p1097da0a1b)">
     <use style="fill:#ff0000;stroke:#ff0000;stroke-linejoin:bevel;" x="373.581818" xlink:href="#m941e0940a3" y="44.443636"/>
    </g>
   </g>
   <g id="line2d_28">
    <path clip-path="url(#p1097da0a1b)" d="M 182.267063 237.723636 
L 373.581818 44.443636 
L 373.581818 44.443636 
" style="fill:none;stroke:#bfbf00;stroke-linecap:square;stroke-width:1.5;"/>
   </g>
   <g id="line2d_29">
    <path clip-path="url(#p1097da0a1b)" d="M 182.267063 194.33451 
L 182.267063 237.723636 
" style="fill:none;stroke:#ff0000;stroke-linecap:square;stroke-width:1.5;"/>
   </g>
   <g id="line2d_30">
    <g clip-path="url(#p1097da0a1b)">
     <use style="fill:#ff0000;stroke:#ff0000;stroke-linejoin:bevel;" x="182.267063" xlink:href="#m941e0940a3" y="194.33451"/>
    </g>
   </g>
   <g id="line2d_31">
    <path clip-path="url(#p1097da0a1b)" d="M 104.324554 237.723636 
L 182.267063 194.33451 
L 182.267063 194.33451 
" style="fill:none;stroke:#bfbf00;stroke-linecap:square;stroke-width:1.5;"/>
   </g>
   <g id="line2d_32">
    <path clip-path="url(#p1097da0a1b)" d="M 104.324554 230.521877 
L 104.324554 237.723636 
" style="fill:none;stroke:#ff0000;stroke-linecap:square;stroke-width:1.5;"/>
   </g>
   <g id="line2d_33">
    <g clip-path="url(#p1097da0a1b)">
     <use style="fill:#ff0000;stroke:#ff0000;stroke-linejoin:bevel;" x="104.324554" xlink:href="#m941e0940a3" y="230.521877"/>
    </g>
   </g>
   <g id="line2d_34">
    <path clip-path="url(#p1097da0a1b)" d="M 84.958974 237.723636 
L 104.324554 230.521877 
L 104.324554 230.521877 
" style="fill:none;stroke:#bfbf00;stroke-linecap:square;stroke-width:1.5;"/>
   </g>
   <g id="line2d_35">
    <path clip-path="url(#p1097da0a1b)" d="M 84.958974 237.279059 
L 84.958974 237.723636 
" style="fill:none;stroke:#ff0000;stroke-linecap:square;stroke-width:1.5;"/>
   </g>
   <g id="line2d_36">
    <g clip-path="url(#p1097da0a1b)">
     <use style="fill:#ff0000;stroke:#ff0000;stroke-linejoin:bevel;" x="84.958974" xlink:href="#m941e0940a3" y="237.279059"/>
    </g>
   </g>
   <g id="line2d_37">
    <path clip-path="url(#p1097da0a1b)" d="M 83.595116 237.723636 
L 84.958974 237.279059 
L 84.958974 237.279059 
" style="fill:none;stroke:#bfbf00;stroke-linecap:square;stroke-width:1.5;"/>
   </g>
   <g id="line2d_38">
    <path clip-path="url(#p1097da0a1b)" d="M 83.595116 237.721431 
L 83.595116 237.723636 
" style="fill:none;stroke:#ff0000;stroke-linecap:square;stroke-width:1.5;"/>
   </g>
   <g id="line2d_39">
    <g clip-path="url(#p1097da0a1b)">
     <use style="fill:#ff0000;stroke:#ff0000;stroke-linejoin:bevel;" x="83.595116" xlink:href="#m941e0940a3" y="237.721431"/>
    </g>
   </g>
   <g id="line2d_40">
    <path clip-path="url(#p1097da0a1b)" d="M 83.588284 237.723636 
L 83.595116 237.721431 
L 83.595116 237.721431 
" style="fill:none;stroke:#bfbf00;stroke-linecap:square;stroke-width:1.5;"/>
   </g>
   <g id="line2d_41">
    <path clip-path="url(#p1097da0a1b)" d="M 83.588284 237.723636 
L 83.588284 237.723636 
" style="fill:none;stroke:#ff0000;stroke-linecap:square;stroke-width:1.5;"/>
   </g>
   <g id="line2d_42">
    <g clip-path="url(#p1097da0a1b)">
     <use style="fill:#ff0000;stroke:#ff0000;stroke-linejoin:bevel;" x="83.588284" xlink:href="#m941e0940a3" y="237.723636"/>
    </g>
   </g>
   <g id="line2d_43">
    <path clip-path="url(#p1097da0a1b)" d="M 83.588283 237.723636 
L 83.588284 237.723636 
L 83.588284 237.723636 
" style="fill:none;stroke:#bfbf00;stroke-linecap:square;stroke-width:1.5;"/>
   </g>
   <g id="patch_3">
    <path d="M 54 252 
L 54 34.56 
" style="fill:none;stroke:#000000;stroke-linecap:square;stroke-linejoin:miter;stroke-width:0.8;"/>
   </g>
   <g id="patch_4">
    <path d="M 388.8 252 
L 388.8 34.56 
" style="fill:none;stroke:#000000;stroke-linecap:square;stroke-linejoin:miter;stroke-width:0.8;"/>
   </g>
   <g id="patch_5">
    <path d="M 54 252 
L 388.8 252 
" style="fill:none;stroke:#000000;stroke-linecap:square;stroke-linejoin:miter;stroke-width:0.8;"/>
   </g>
   <g id="patch_6">
    <path d="M 54 34.56 
L 388.8 34.56 
" style="fill:none;stroke:#000000;stroke-linecap:square;stroke-linejoin:miter;stroke-width:0.8;"/>
   </g>
   <g id="text_14">
    <!-- Newton Raphson search for solution to $f(x)=0$. -->
    <defs>
     <path d="M 22.5 72 
L 1.90625 72 
L 1.90625 67.296875 
L 4.40625 67.296875 
C 9.5 67.296875 11.796875 66.5 13.59375 64 
L 13.59375 21.640625 
C 13.59375 7.984375 11.59375 5.09375 2 4.6875 
L 2 0 
L 30.5 0 
L 30.5 4.6875 
C 21 5.09375 19 7.984375 19 21.640625 
L 19 58.625 
L 63.59375 -1 
L 67.796875 -1 
L 67.796875 50.453125 
C 67.796875 64.03125 69.796875 66.890625 79.40625 67.296875 
L 79.40625 72 
L 50.90625 72 
L 50.90625 67.296875 
C 60.40625 66.890625 62.40625 64.03125 62.40625 50.453125 
L 62.40625 19.328125 
z
" id="Century_Schoolbook_L_Roman-78"/>
     <path d="M 46.5 22 
C 46.59375 37.25 38.09375 48 25.90625 48 
C 13.09375 48 3.5 36.734375 3.5 21.484375 
C 3.5 7.484375 12.59375 -2 26.09375 -2 
C 35.59375 -2 42.40625 2.6875 46.5 12.1875 
L 43 14.09375 
C 38.90625 6.390625 34.703125 3.390625 28 3.390625 
C 22.90625 3.390625 19.203125 5.59375 16.59375 9.984375 
C 14.796875 12.984375 14 16.484375 14.09375 22 
z
M 14.203125 26.296875 
C 14.203125 29.46875 14.59375 31.71875 15.59375 34.578125 
C 17.703125 40.71875 20.90625 43.6875 25.703125 43.6875 
C 31.796875 43.6875 35.796875 38.265625 35.796875 30.078125 
C 35.796875 27.109375 34.90625 26.296875 31.703125 26.296875 
z
" id="Century_Schoolbook_L_Roman-101"/>
     <path d="M 54.703125 12.65625 
L 44.90625 38.890625 
C 44.59375 39.609375 44.5 40.125 44.5 41.046875 
C 44.5 42.875 45.40625 43.390625 48.703125 43.390625 
L 51.09375 43.390625 
L 51.09375 47 
L 28.703125 47 
L 28.703125 43.390625 
L 30.40625 43.390625 
C 33.5 43.390625 34.703125 42.578125 35.59375 39.609375 
L 36.5 36.953125 
L 27.703125 13.171875 
L 18 38.796875 
C 17.796875 39.515625 17.59375 40.421875 17.59375 41.046875 
C 17.59375 42.78125 18.703125 43.390625 21.703125 43.390625 
L 23.5 43.390625 
L 23.5 47 
L 1.5 47 
L 1.5 43.390625 
L 3.296875 43.390625 
C 6.09375 43.390625 7.09375 42.46875 8.5 38.390625 
L 23.5 -2 
L 27 -2 
L 38.90625 30.21875 
L 51.09375 -2 
L 54.203125 -2 
L 68.203125 35.625 
C 70.40625 41.65625 72.09375 43.390625 75.59375 43.390625 
L 76.296875 43.390625 
L 76.296875 47 
L 57.40625 47 
L 57.40625 43.390625 
L 59.09375 43.390625 
C 62.59375 43.390625 64 42.265625 64 39.71875 
C 64 38.6875 63.703125 37.15625 63.203125 35.9375 
z
" id="Century_Schoolbook_L_Roman-119"/>
     <path d="M 19.40625 47 
L 19.40625 66.796875 
L 15.296875 66.796875 
C 14.296875 53.796875 9.90625 47.1875 1.796875 46.59375 
L 1.796875 42.6875 
L 10 42.6875 
L 10 16.578125 
C 10 9.421875 10.203125 6.859375 11.203125 4.5 
C 12.796875 0.296875 16.796875 -2 22.59375 -2 
C 26.5 -2 29.90625 -0.8125 32.203125 1.390625 
C 35.5 4.609375 37.40625 10.03125 37.40625 15.65625 
C 37.40625 16.28125 37.40625 17 37.296875 18.015625 
L 33.09375 18.015625 
C 32.796875 8.796875 30.203125 4.09375 25.296875 4.09375 
C 23 4.09375 21 5.328125 20.296875 7.0625 
C 19.703125 8.5 19.40625 11.0625 19.40625 14.734375 
L 19.40625 42.6875 
L 34.09375 42.6875 
L 34.09375 47 
z
" id="Century_Schoolbook_L_Roman-116"/>
     <path d="M 25.203125 48 
C 13 48 3.40625 37.03125 3.40625 22.890625 
C 3.40625 9.0625 13 -2 25 -2 
C 37 -2 46.59375 9.0625 46.59375 22.984375 
C 46.59375 36.828125 37 48 25.203125 48 
z
M 25.203125 43.6875 
C 32.203125 43.6875 36.09375 36.3125 36.09375 22.984375 
C 36.09375 9.5625 32.203125 2.296875 25 2.296875 
C 17.796875 2.296875 13.90625 9.5625 13.90625 22.890625 
C 13.90625 36.625 17.703125 43.6875 25.203125 43.6875 
z
" id="Century_Schoolbook_L_Roman-111"/>
     <path d="M 20 47 
L 2.703125 46 
L 2.703125 41.6875 
L 6.296875 41.6875 
C 10 41.6875 10.59375 40.984375 10.59375 36.625 
L 10.59375 12.40625 
L 10.59375 8.359375 
C 10.59375 4.296875 9.5 3.59375 3.09375 3.59375 
L 2.703125 3.59375 
L 2.703125 0 
L 28 0 
L 28 3.59375 
L 27.59375 3.59375 
C 21.09375 3.59375 20 4.296875 20 8.359375 
L 20 12.40625 
L 20 22.953125 
C 20 27.90625 20.703125 32.46875 21.796875 34.796875 
C 23.90625 38.796875 28.40625 41.890625 32.703125 41.890625 
C 35.296875 41.890625 38.296875 40.390625 39.796875 38.40625 
C 41.296875 36.296875 42 33.21875 42 28.421875 
L 42 12.265625 
L 42 8.28125 
C 42 4.296875 40.90625 3.59375 34.40625 3.59375 
L 34 3.59375 
L 34 0 
L 59.296875 0 
L 59.296875 3.59375 
L 58.90625 3.59375 
C 52.5 3.59375 51.40625 4.296875 51.40625 8.28125 
L 51.40625 12.265625 
L 51.40625 27.921875 
C 51.40625 35.109375 51.09375 36.90625 49.296875 40.296875 
C 46.796875 45.09375 41.703125 48 35.796875 48 
C 29.40625 48 24.40625 44.984375 20 38.40625 
z
" id="Century_Schoolbook_L_Roman-110"/>
     <path d="M 24.59375 35 
L 30.40625 35 
C 34.296875 35 38.296875 33.765625 40.5 31.9375 
C 43.40625 29.59375 44.90625 25.9375 45.59375 19.21875 
L 46.09375 14.03125 
C 47.296875 2.59375 51 -2 58.90625 -2 
C 67.09375 -2 71 3.5 71.296875 15.65625 
L 67.09375 15.65625 
C 66.703125 8.640625 65.5 5.59375 62.796875 5.59375 
C 60.5 5.59375 59.5 7.328125 57.796875 14.34375 
L 56.203125 20.75 
C 54 30.109375 50.09375 34.375 42.296875 36.390625 
C 56.703125 38.390625 63.59375 44.15625 63.59375 54.1875 
C 63.59375 65.5 54 72 37.203125 72 
L 2.59375 72 
L 2.59375 67.296875 
L 4.40625 67.296875 
C 12.5 67.296875 13.40625 66.796875 13.40625 62.625 
L 13.40625 59.75 
L 13.40625 11.796875 
L 13.40625 8.953125 
C 13.40625 5.1875 12.5 4.6875 4.40625 4.6875 
L 2.59375 4.6875 
L 2.59375 0 
L 35.40625 0 
L 35.40625 4.6875 
L 33.59375 4.6875 
C 25.5 4.6875 24.59375 5.1875 24.59375 9.390625 
L 24.59375 12.1875 
z
M 24.59375 39.6875 
L 24.59375 61.53125 
C 24.59375 65.5 24.703125 65.796875 25.703125 66.59375 
C 26.5 67.1875 27.203125 67.296875 31.5 67.296875 
L 36.90625 67.296875 
C 46.796875 67.296875 51.296875 63.125 51.296875 54.09375 
C 51.296875 49.03125 50 45.15625 47.40625 43.0625 
C 44.90625 40.984375 40.40625 39.6875 35.59375 39.6875 
z
" id="Century_Schoolbook_L_Roman-82"/>
     <path d="M 45.203125 31.96875 
C 45.203125 38.34375 44.09375 41.578125 41.203125 43.984375 
C 37.90625 46.59375 33 48 26.59375 48 
C 15.40625 48 7.09375 42.6875 7.09375 35.40625 
C 7.09375 31.578125 9.40625 29.140625 12.90625 29.140625 
C 16 29.140625 18.296875 31.265625 18.296875 34.296875 
C 18.296875 35.609375 17.796875 37.03125 16.796875 38.4375 
C 16.203125 39.140625 16.09375 39.453125 16.09375 39.75 
C 16.09375 41.875 20.203125 43.6875 25 43.6875 
C 28.09375 43.6875 31.59375 42.6875 33.203125 41.171875 
C 35.09375 39.546875 35.796875 37.125 35.796875 32.578125 
L 35.796875 28.640625 
C 25.296875 26.828125 22.09375 26.015625 17.203125 24.09375 
C 8.59375 20.859375 4.40625 16.125 4.40625 9.75 
C 4.40625 2.59375 10.09375 -2 18.90625 -2 
C 25.796875 -2 32 0.796875 36.296875 5.921875 
C 37.90625 1 40.40625 -1 45.09375 -1 
C 49.59375 -1 54.296875 1.890625 54.296875 4.796875 
C 54.296875 5.5 53.796875 6 53.296875 6 
C 52.90625 6 52.5 5.890625 51.796875 5.59375 
C 50.203125 5 49.796875 4.890625 49 4.890625 
C 46.203125 4.890625 45.203125 6.796875 45.203125 11.796875 
z
M 35.796875 19.6875 
C 35.796875 13.6875 35.5 12.296875 33.796875 9.6875 
C 31.296875 5.796875 26.703125 3.296875 22.40625 3.296875 
C 17.90625 3.296875 14.5 6.59375 14.5 11.09375 
C 14.5 15.296875 16.59375 18.296875 21 20.390625 
C 24.09375 21.796875 28 22.796875 35.796875 24.09375 
z
" id="Century_Schoolbook_L_Roman-97"/>
     <path d="M 20.09375 47 
L 2.796875 46 
L 2.796875 41.6875 
L 6.40625 41.6875 
C 10.09375 41.6875 10.703125 40.96875 10.703125 36.5625 
L 10.703125 -8.359375 
L 10.703125 -12.34375 
C 10.703125 -16.3125 9.59375 -17 3.203125 -17 
L 2.796875 -17 
L 2.796875 -20.609375 
L 28.796875 -20.609375 
L 28.796875 -17 
L 27.703125 -17 
C 21.203125 -17 20.09375 -16.3125 20.09375 -12.34375 
L 20.09375 -8.359375 
L 20.09375 6.171875 
C 23.40625 0.296875 27.203125 -2 33.296875 -2 
C 44.90625 -2 53.5 8.828125 53.5 23.515625 
C 53.5 37.1875 44.90625 48 33.90625 48 
C 27.703125 48 23.59375 45.390625 20.09375 39.390625 
z
M 32.09375 42.59375 
C 39 42.59375 43 35.625 43 23.796875 
C 43 10.765625 38.90625 3.390625 31.796875 3.390625 
C 24.703125 3.390625 20 10.875 20 22.484375 
C 20 35.015625 24.5 42.59375 32.09375 42.59375 
z
" id="Century_Schoolbook_L_Roman-112"/>
     <path d="M 20 74 
L 1.5 73 
L 1.5 68.6875 
L 6.296875 68.6875 
C 10 68.6875 10.59375 67.96875 10.59375 63.5625 
L 10.59375 12.265625 
L 10.59375 8.28125 
C 10.59375 4.296875 9.5 3.59375 3.09375 3.59375 
L 2.703125 3.59375 
L 2.703125 0 
L 28 0 
L 28 3.59375 
L 27.59375 3.59375 
C 21.09375 3.59375 20 4.296875 20 8.28125 
L 20 12.265625 
L 20 22.546875 
C 20 27.53125 20.703125 32.015625 21.796875 34.3125 
C 23.90625 38.796875 28.40625 41.890625 32.703125 41.890625 
C 35.296875 41.890625 38.296875 40.390625 39.796875 38.40625 
C 41.296875 36.203125 42 33.21875 42 28.328125 
L 42 12.265625 
L 42 8.28125 
C 42 4.296875 40.90625 3.59375 34.40625 3.59375 
L 34 3.59375 
L 34 0 
L 59.296875 0 
L 59.296875 3.59375 
L 58.90625 3.59375 
C 52.5 3.59375 51.40625 4.296875 51.40625 8.28125 
L 51.40625 12.265625 
L 51.40625 27.921875 
C 51.40625 35.109375 51.09375 36.90625 49.296875 40.296875 
C 46.796875 45.09375 41.796875 48 35.796875 48 
C 29.40625 48 24.5 44.984375 20 38.296875 
z
" id="Century_Schoolbook_L_Roman-104"/>
     <path d="M 39 48 
L 35.5 48 
L 32.59375 44.390625 
C 29 46.796875 25.40625 48 20.40625 48 
C 11.59375 48 5.796875 42.1875 5.796875 33.390625 
C 5.796875 29.453125 7.09375 26.125 9.296875 24.109375 
C 11.59375 21.984375 13.90625 20.96875 19.90625 19.5625 
L 25.203125 18.34375 
C 33.09375 16.4375 35.90625 14.40625 35.90625 10.375 
C 35.90625 5.625 31.796875 2.296875 25.90625 2.296875 
C 17.5 2.296875 11.5 7.75 9.09375 17.84375 
L 5.09375 17.84375 
L 5.09375 -1.203125 
L 8.59375 -1.203125 
L 12.09375 2.890625 
C 16.203125 -0.40625 20.796875 -2 25.796875 -2 
C 35.59375 -2 42.09375 4.109375 42.09375 13.5 
C 42.09375 17.9375 40.703125 21.375 37.90625 23.703125 
C 35.5 25.828125 33.5 26.625 27.40625 27.9375 
L 22.40625 29.046875 
C 16.90625 30.265625 16.90625 30.265625 15.09375 31.28125 
C 12.90625 32.28125 11.59375 34.40625 11.59375 36.625 
C 11.59375 40.671875 15.40625 43.59375 20.90625 43.59375 
C 24.703125 43.59375 27.796875 42.28125 30.59375 39.5625 
C 32.796875 37.796875 33.90625 35.796875 35.5 31.1875 
L 39 31.1875 
z
" id="Century_Schoolbook_L_Roman-115"/>
     <path d="M 19.796875 47 
L 2.09375 45.296875 
L 2.09375 41 
L 6.203125 41 
C 9.90625 41 10.5 40.296875 10.5 36.015625 
L 10.5 12.25 
L 10.5 8.265625 
C 10.5 4.28125 9.40625 3.59375 2.90625 3.59375 
L 2.5 3.59375 
L 2.5 0 
L 29.203125 0 
L 29.203125 3.59375 
L 27.296875 3.59375 
C 20.90625 3.59375 19.796875 4.28125 19.796875 8.265625 
L 19.796875 12.25 
L 19.796875 13.234375 
C 19.796875 20.703125 21.203125 28.265625 23.703125 33.9375 
C 26.09375 39.5 29.5 42.59375 33.703125 43.09375 
C 32.296875 41.5 31.90625 40.5 31.90625 38.609375 
C 31.90625 35.421875 34.203125 33.140625 37.40625 33.140625 
C 41 33.140625 43.5 35.828125 43.5 39.90625 
C 43.5 44.6875 40.09375 48 34.796875 48 
C 28.5 48 23 42.796875 19.796875 34.03125 
z
" id="Century_Schoolbook_L_Roman-114"/>
     <path d="M 38.703125 14.296875 
C 35.5 7.015625 32.09375 4.09375 26.90625 4.09375 
C 18.90625 4.09375 13.90625 11.46875 13.90625 23.28125 
C 13.90625 35.5 18.796875 43.6875 26.203125 43.6875 
C 29.203125 43.6875 31.796875 42.28125 31.796875 40.65625 
C 31.796875 40.359375 31.59375 40.046875 31.203125 39.453125 
C 29.59375 37.53125 29.203125 36.515625 29.203125 34.796875 
C 29.203125 31.46875 31.703125 29.140625 35.203125 29.140625 
C 38.703125 29.140625 41.296875 31.96875 41.296875 36.015625 
C 41.296875 42.78125 34.59375 48 25.703125 48 
C 12.703125 48 3.40625 37.21875 3.40625 22.171875 
C 3.40625 7.828125 11.90625 -2 24.296875 -2 
C 33.203125 -2 38.296875 2.09375 42.59375 12.78125 
z
" id="Century_Schoolbook_L_Roman-99"/>
     <path d="M 20.09375 47 
L 20.09375 52.671875 
C 20.09375 57.640625 20.40625 60.9375 21.203125 62.921875 
C 22.796875 67.296875 26.296875 69.984375 30.296875 69.984375 
C 32.40625 69.984375 33.703125 69.390625 33.703125 68.296875 
C 33.703125 68 33.59375 67.796875 33.09375 67 
C 32.5 66.015625 32.203125 64.90625 32.203125 63.8125 
C 32.203125 60.828125 34.59375 58.546875 37.703125 58.546875 
C 41 58.546875 43.296875 61.03125 43.296875 64.609375 
C 43.296875 70.390625 38.296875 74 30.203125 74 
C 23.296875 74 18.296875 71.59375 14.703125 66.609375 
C 11.703125 62.421875 10.703125 58.140625 10.703125 50.078125 
L 10.703125 47 
L 1.90625 47 
L 1.90625 42.6875 
L 10.703125 42.6875 
L 10.703125 12.375 
L 10.703125 8.34375 
C 10.703125 4.296875 9.59375 3.59375 3.203125 3.59375 
L 2.796875 3.59375 
L 2.796875 0 
L 29.5 0 
L 29.5 3.59375 
L 27.703125 3.59375 
C 21.203125 3.59375 20.09375 4.296875 20.09375 8.34375 
L 20.09375 12.375 
L 20.09375 42.6875 
L 31.09375 42.6875 
L 31.09375 47 
z
" id="Century_Schoolbook_L_Roman-102"/>
     <path d="M 20.40625 74 
L 1.90625 73 
L 1.90625 68.6875 
L 6.796875 68.6875 
C 10.40625 68.6875 11 67.984375 11 63.65625 
L 11 12.34375 
L 11 8.328125 
C 11 4.296875 9.90625 3.59375 3.5 3.59375 
L 2.796875 3.59375 
L 2.796875 0 
L 28.703125 0 
L 28.703125 3.59375 
L 28 3.59375 
C 21.5 3.59375 20.40625 4.296875 20.40625 8.328125 
L 20.40625 12.34375 
z
" id="Century_Schoolbook_L_Roman-108"/>
     <path d="M 41.203125 -0.703125 
L 59.40625 0 
L 59.40625 4.296875 
L 56.90625 4.296875 
C 51.40625 4.296875 50.59375 5.203125 50.59375 11.671875 
L 50.59375 47 
L 31.796875 46 
L 31.796875 41.6875 
L 36.90625 41.6875 
C 40.59375 41.6875 41.203125 40.96875 41.203125 36.5625 
L 41.203125 23.921875 
C 41.203125 18.0625 40.59375 14.671875 39.09375 11.28125 
C 37 6.765625 33 4.09375 28.09375 4.09375 
C 25 4.09375 22.40625 5.21875 21.09375 7.28125 
C 19.796875 9.234375 19.59375 10.25 19.59375 15.90625 
L 19.59375 47 
L 2.09375 46 
L 2.09375 41.6875 
L 5.90625 41.6875 
C 9.59375 41.6875 10.203125 40.96875 10.203125 36.5625 
L 10.203125 14.359375 
C 10.203125 9.125 10.59375 6.765625 12.09375 4.40625 
C 14.796875 0.296875 19.59375 -2 25.59375 -2 
C 32.203125 -2 36.796875 0.6875 41.203125 7.171875 
z
" id="Century_Schoolbook_L_Roman-117"/>
     <path d="M 20.59375 47 
L 1.796875 46 
L 1.796875 41.6875 
L 6.90625 41.6875 
C 10.59375 41.6875 11.203125 40.984375 11.203125 36.625 
L 11.203125 12.40625 
L 11.203125 8.359375 
C 11.203125 4.296875 10.09375 3.59375 3.703125 3.59375 
L 3 3.59375 
L 3 0 
L 28.90625 0 
L 28.90625 3.59375 
L 28.203125 3.59375 
C 21.703125 3.59375 20.59375 4.296875 20.59375 8.359375 
L 20.59375 12.40625 
z
M 15.90625 72 
C 12.703125 72 10.09375 69.390625 10.09375 66.1875 
C 10.09375 63.09375 12.703125 60.390625 15.796875 60.390625 
C 19.09375 60.390625 21.703125 62.984375 21.703125 66.1875 
C 21.703125 69.390625 19.09375 72 15.90625 72 
z
" id="Century_Schoolbook_L_Roman-105"/>
     <path d="M 64.296875 32 
C 65.796875 32 67.296875 32 67.296875 33.6875 
C 67.296875 35.5 65.59375 35.5 63.90625 35.5 
L 8 35.5 
C 6.296875 35.5 4.59375 35.5 4.59375 33.6875 
C 4.59375 32 6.09375 32 7.59375 32 
z
M 63.90625 14.484375 
C 65.59375 14.484375 67.296875 14.484375 67.296875 16.296875 
C 67.296875 18 65.796875 18 64.296875 18 
L 7.59375 18 
C 6.09375 18 4.59375 18 4.59375 16.296875 
C 4.59375 14.484375 6.296875 14.484375 8 14.484375 
z
" id="CMR17-61"/>
     <path d="M 13.703125 11.5 
C 10.203125 11.5 7.40625 8.6875 7.40625 5.296875 
C 7.40625 1.796875 10.203125 -1 13.59375 -1 
C 17.09375 -1 19.90625 1.796875 19.90625 5.296875 
C 19.90625 8.6875 17.09375 11.5 13.703125 11.5 
z
" id="Century_Schoolbook_L_Roman-46"/>
    </defs>
    <g transform="translate(88.871842 28.56)scale(0.12 -0.12)">
     <use transform="scale(0.996264)" xlink:href="#Century_Schoolbook_L_Roman-78"/>
     <use transform="translate(81.194513 0)scale(0.996264)" xlink:href="#Century_Schoolbook_L_Roman-101"/>
     <use transform="translate(131.007714 0)scale(0.996264)" xlink:href="#Century_Schoolbook_L_Roman-119"/>
     <use transform="translate(208.516084 0)scale(0.996264)" xlink:href="#Century_Schoolbook_L_Roman-116"/>
     <use transform="translate(247.26979 0)scale(0.996264)" xlink:href="#Century_Schoolbook_L_Roman-111"/>
     <use transform="translate(297.082991 0)scale(0.996264)" xlink:href="#Century_Schoolbook_L_Roman-110"/>
     <use transform="translate(385.649791 0)scale(0.996264)" xlink:href="#Century_Schoolbook_L_Roman-82"/>
     <use transform="translate(457.579776 0)scale(0.996264)" xlink:href="#Century_Schoolbook_L_Roman-97"/>
     <use transform="translate(512.971453 0)scale(0.996264)" xlink:href="#Century_Schoolbook_L_Roman-112"/>
     <use transform="translate(570.15694 0)scale(0.996264)" xlink:href="#Century_Schoolbook_L_Roman-104"/>
     <use transform="translate(631.028571 0)scale(0.996264)" xlink:href="#Century_Schoolbook_L_Roman-115"/>
     <use transform="translate(677.154381 0)scale(0.996264)" xlink:href="#Century_Schoolbook_L_Roman-111"/>
     <use transform="translate(726.967582 0)scale(0.996264)" xlink:href="#Century_Schoolbook_L_Roman-110"/>
     <use transform="translate(815.534382 0)scale(0.996264)" xlink:href="#Century_Schoolbook_L_Roman-115"/>
     <use transform="translate(861.660193 0)scale(0.996264)" xlink:href="#Century_Schoolbook_L_Roman-101"/>
     <use transform="translate(911.473393 0)scale(0.996264)" xlink:href="#Century_Schoolbook_L_Roman-97"/>
     <use transform="translate(966.86507 0)scale(0.996264)" xlink:href="#Century_Schoolbook_L_Roman-114"/>
     <use transform="translate(1011.098639 0)scale(0.996264)" xlink:href="#Century_Schoolbook_L_Roman-99"/>
     <use transform="translate(1054.635297 0)scale(0.996264)" xlink:href="#Century_Schoolbook_L_Roman-104"/>
     <use transform="translate(1143.202097 0)scale(0.996264)" xlink:href="#Century_Schoolbook_L_Roman-102"/>
     <use transform="translate(1176.377327 0)scale(0.996264)" xlink:href="#Century_Schoolbook_L_Roman-111"/>
     <use transform="translate(1226.190528 0)scale(0.996264)" xlink:href="#Century_Schoolbook_L_Roman-114"/>
     <use transform="translate(1298.119266 0)scale(0.996264)" xlink:href="#Century_Schoolbook_L_Roman-115"/>
     <use transform="translate(1344.245076 0)scale(0.996264)" xlink:href="#Century_Schoolbook_L_Roman-111"/>
     <use transform="translate(1394.058277 0)scale(0.996264)" xlink:href="#Century_Schoolbook_L_Roman-108"/>
     <use transform="translate(1425.43959 0)scale(0.996264)" xlink:href="#Century_Schoolbook_L_Roman-117"/>
     <use transform="translate(1486.311221 0)scale(0.996264)" xlink:href="#Century_Schoolbook_L_Roman-116"/>
     <use transform="translate(1525.064927 0)scale(0.996264)" xlink:href="#Century_Schoolbook_L_Roman-105"/>
     <use transform="translate(1556.44624 0)scale(0.996264)" xlink:href="#Century_Schoolbook_L_Roman-111"/>
     <use transform="translate(1606.25944 0)scale(0.996264)" xlink:href="#Century_Schoolbook_L_Roman-110"/>
     <use transform="translate(1694.826241 0)scale(0.996264)" xlink:href="#Century_Schoolbook_L_Roman-116"/>
     <use transform="translate(1733.579947 0)scale(0.996264)" xlink:href="#Century_Schoolbook_L_Roman-111"/>
     <use transform="translate(1811.088317 0)scale(0.996264)" xlink:href="#CMMI12-102"/>
     <use transform="translate(1869.808622 0)scale(0.996264)" xlink:href="#CMR17-40"/>
     <use transform="translate(1905.08939 0)scale(0.996264)" xlink:href="#CMMI12-120"/>
     <use transform="translate(1960.523449 0)scale(0.996264)" xlink:href="#CMR17-41"/>
     <use transform="translate(2023.478226 0)scale(0.996264)" xlink:href="#CMR17-61"/>
     <use transform="translate(2122.867023 0)scale(0.996264)" xlink:href="#CMR17-48"/>
     <use transform="translate(2168.5575 0)scale(0.996264)" xlink:href="#Century_Schoolbook_L_Roman-46"/>
    </g>
   </g>
  </g>
 </g>
 <defs>
  <clipPath id="p1097da0a1b">
   <rect height="217.44" width="334.8" x="54" y="34.56"/>
  </clipPath>
 </defs>
</svg>
